<?xml version="1.0" encoding="UTF-8"?>
<!DOCTYPE svg PUBLIC "-//W3C//DTD SVG 1.1//EN" "http://www.w3.org/Graphics/SVG/1.1/DTD/svg11.dtd">
<!-- Creator: CorelDRAW -->
<svg xmlns="http://www.w3.org/2000/svg" xml:space="preserve" width="1920px" height="1080px" version="1.1" style="shape-rendering:geometricPrecision; text-rendering:geometricPrecision; image-rendering:optimizeQuality; fill-rule:evenodd; clip-rule:evenodd"
viewBox="0 0 1129.89 635.57"
 xmlns:xlink="http://www.w3.org/1999/xlink"
 xmlns:xodm="http://www.corel.com/coreldraw/odm/2003">
 <defs>
  <style type="text/css">
   <![CDATA[
    .str1 {stroke:#ED3237;stroke-width:2.45;stroke-miterlimit:22.9256}
    .str0 {stroke:#FEFEFE;stroke-width:1.39;stroke-miterlimit:22.9256;stroke-dasharray:6.950000 4.170000}
    .fil1 {fill:none}
    .fil0 {fill:black;fill-opacity:0.501961}
   ]]>
  </style>
 </defs>
 <g id="Layer_x0020_1">
  <metadata id="CorelCorpID_0Corel-Layer"/>
  <path class="fil0" d="M0 0l1129.89 0 0 635.57 -1129.89 0 0 -635.57zm564.69 532.97c-155.48,0 -212.13,-431.5 0,-431.5 207.45,0 158.49,431.5 0,431.5z"/>
  <line class="fil1 str0" x1="564.69" y1="532.97" x2="564.69" y2= "101.47" />
  <line class="fil1 str0" x1="427.23" y1="263.64" x2="701.01" y2= "263.64" />
  <line class="fil1 str0" x1="434.15" y1="370.86" x2="695.14" y2= "370.86" />
  <path class="fil1 str0" d="M543.48 354.31c2.63,-18.62 2.99,-34.59 0.63,-47.39"/>
  <path class="fil1 str0" d="M585.92 354.31c-2.63,-18.62 -2.99,-34.59 -0.62,-47.39"/>
  <path class="fil1 str0" d="M531.36 395.81c-0.29,5.33 2.6,9.49 10.06,10.05l23.26 0"/>
  <path class="fil1 str0" d="M597.99 395.81c0.29,5.33 -2.59,9.49 -10.06,10.05l-23.25 0"/>
  <path class="fil1 str1" d="M564.69 532.97c-155.48,0 -212.13,-431.5 0,-431.5 207.45,0 158.49,431.5 0,431.5z"/>
 </g>
</svg>
